<?xml version="1.0" encoding="UTF-8" standalone="no"?>
<svg width="60px" height="60px" viewBox="0 0 60 60" version="1.1" xmlns="http://www.w3.org/2000/svg" xmlns:xlink="http://www.w3.org/1999/xlink" xmlns:sketch="http://www.bohemiancoding.com/sketch/ns">
    <!-- Generator: Sketch 3.2.2 (9983) - http://www.bohemiancoding.com/sketch -->
    <title>Docarchive</title>
    <desc>Created with Sketch.</desc>
    <defs></defs>
    <g id="colored" stroke="none" stroke-width="1" fill="none" fill-rule="evenodd" sketch:type="MSPage">
        <g id="Marketing_sliced" sketch:type="MSLayerGroup" transform="translate(0.000000, -1320.000000)"></g>
        <g id="Marketing" sketch:type="MSLayerGroup" transform="translate(2.000000, -1310.000000)" stroke="#314E55" stroke-width="2" stroke-linejoin="round">
            <g id="Docarchive" transform="translate(4.000000, 1317.000000)" sketch:type="MSShapeGroup">
                <rect id="Rectangle-1628" stroke-linecap="round" fill="#81A4E3" x="0" y="0" width="16" height="47"></rect>
                <rect id="Rectangle-1629" stroke-linecap="round" fill="#D8D8D8" x="4" y="4" width="8" height="7"></rect>
                <circle id="Oval-1442" stroke-linecap="round" fill="#D8D8D8" cx="8" cy="38" r="5"></circle>
                <path d="M4,15 L9,15" id="Line" stroke-linecap="square"></path>
                <path d="M4,20 L12,20" id="Line" stroke-linecap="square"></path>
                <path d="M4,25 L12,25" id="Line" stroke-linecap="square"></path>
                <rect id="Rectangle-1631" stroke-linecap="round" fill="#EA86A5" x="16" y="0" width="16" height="47"></rect>
                <rect id="Rectangle-1630" stroke-linecap="round" fill="#D8D8D8" x="20" y="4" width="8" height="7"></rect>
                <circle id="Oval-1443" stroke-linecap="round" fill="#D8D8D8" cx="24" cy="38" r="5"></circle>
                <path d="M20,15 L28,15" id="Line-338" stroke-linecap="square"></path>
                <path d="M20,20 L25,20" id="Line-339" stroke-linecap="square"></path>
                <rect id="Rectangle-1633" stroke-linecap="round" fill="#E4AD40" x="32" y="0" width="16" height="47"></rect>
                <rect id="Rectangle-1632" stroke-linecap="round" fill="#D8D8D8" x="36" y="4" width="8" height="7"></rect>
                <circle id="Oval-1444" stroke-linecap="round" fill="#D8D8D8" cx="40" cy="38" r="5"></circle>
                <path d="M36,15 L44,15" id="Line-341" stroke-linecap="square"></path>
                <path d="M36,20 L44,20" id="Line-342" stroke-linecap="square"></path>
            </g>
        </g>
    </g>
</svg>