<svg xmlns="http://www.w3.org/2000/svg" width="90" height="36" viewBox="0 0 90 36" fill="none">
  <path d="M51.6081 8.34766H48.5682V11.1546H46.2204V13.9733H48.5715V18.4009H46.2204V21.2195H48.5715V24.2728C48.5715 24.4924 48.3935 24.6705 48.1738 24.6705H46.1289V27.7054H48.1738C50.069 27.7054 51.6131 26.1646 51.6131 24.2728V19.2012H53.9575V16.3826H51.6131V13.9783H53.9575V11.1596H51.6131V8.34932H51.6081V8.34766Z" fill="black"/>
  <path d="M63.5863 8.25781H58.2086C56.4166 8.25781 54.959 9.71372 54.959 11.5007V24.4542C54.959 26.2445 56.4199 27.6971 58.2086 27.6971H63.5863C65.3783 27.6971 66.8359 26.2412 66.8359 24.4542V11.5007C66.8359 9.71039 65.375 8.25781 63.5863 8.25781ZM63.7943 24.4542C63.7943 24.5723 63.6994 24.6621 63.5863 24.6621H58.2086C58.0921 24.6621 58.0006 24.5673 58.0006 24.4542V11.5007C58.0006 11.3826 58.0954 11.2928 58.2086 11.2928H63.5863C63.7027 11.2928 63.7943 11.3876 63.7943 11.5007V24.4542Z" fill="black"/>
  <path d="M89.7206 16.1729H82.9086L86.7955 11.2344L86.7689 8.50732H72.0567V11.5423H82.689L79.0434 16.1745H70.0684V19.2095H78.907V24.2694C78.907 24.489 78.7289 24.6671 78.5093 24.6671H74.1083V27.702H78.5093C80.4045 27.702 81.9485 26.1612 81.9485 24.2694V19.2095H89.7256V16.1745H89.7206V16.1729Z" fill="black"/>
  <path d="M29.5391 0H6.4609C2.89265 0 0 2.89264 0 6.4609V29.5391C0 33.1074 2.89265 36 6.4609 36H29.5391C33.1073 36 36 33.1074 36 29.5391V6.4609C36 2.89264 33.1073 0 29.5391 0Z" fill="#4D53E8"/>
  <path d="M30.8644 17.9485C30.8194 17.9485 30.7745 17.9485 30.7296 17.9518C30.0358 17.9934 27.9542 18.1232 27.9542 18.1232L27.9609 14.5824C27.9609 9.07824 23.5 4.61568 17.9958 4.61401C12.4917 4.61568 8.03077 9.07824 8.03077 14.5824L8.03742 18.1232C8.03742 18.1232 5.95589 17.9934 5.26205 17.9518C5.21713 17.9485 5.1722 17.9485 5.12728 17.9485C3.82445 17.9485 2.76953 19.005 2.76953 20.3062C2.76953 21.3295 3.42345 22.1997 4.3336 22.5275C5.25706 22.8603 8.02079 23.8686 8.02079 23.8686L7.97253 25.9618C7.97253 27.797 9.46005 29.2862 11.297 29.2862C12.1239 29.2862 12.8793 28.9834 13.4617 28.4842C14.2537 30.1964 15.9875 31.3827 17.9975 31.3827C20.0075 31.3827 21.7396 30.1947 22.5333 28.4842C23.1156 28.9834 23.871 29.2862 24.698 29.2862C26.5333 29.2862 28.0224 27.7987 28.0224 25.9618L27.9742 23.8686C27.9742 23.8686 30.7379 22.8603 31.6614 22.5275C32.5715 22.1997 33.2254 21.3295 33.2254 20.3062C33.2254 19.0034 32.1689 17.9485 30.8677 17.9485H30.8644ZM13.2853 20.0283V18.045C13.2853 17.5092 13.7196 17.0749 14.2554 17.0749C14.7912 17.0749 15.2254 17.5092 15.2254 18.045V20.0283C15.2254 20.5641 14.7912 20.9984 14.2554 20.9984C13.7196 20.9984 13.2853 20.5641 13.2853 20.0283ZM21.4517 23.3262C20.6081 24.3861 19.3486 24.9934 17.9958 24.9934C16.6431 24.9934 15.3819 24.3844 14.5383 23.3228C14.2388 22.9468 14.302 22.3994 14.678 22.1015C15.0541 21.802 15.6015 21.8653 15.8993 22.2413C16.4101 22.8852 17.1739 23.2546 17.9958 23.2546C18.8178 23.2546 19.5799 22.8852 20.0907 22.243C20.3902 21.8669 20.9359 21.8054 21.312 22.1032C21.688 22.4027 21.7496 22.9485 21.4517 23.3245V23.3262ZM21.7296 20.9984C21.1106 20.9984 20.6098 20.4975 20.6098 19.8786C20.6098 19.2596 21.1106 18.7588 21.7296 18.7588C22.3486 18.7588 22.8494 19.2596 22.8494 19.8786C22.8494 20.4975 22.3486 20.9984 21.7296 20.9984Z" fill="white"/>
</svg>
